<svg width="480" height="480" xmlns="http://www.w3.org/2000/svg" xmlns:xlink="http://www.w3.org/1999/xlink" xml:space="preserve" overflow="hidden"><g transform="translate(-615 -60)"><path d="M1047.84 436.088C1047.84 436.087 1047.85 436.086 1047.85 436.084 1055.4 418.597 1060.42 390.492 1040.4 376.599 1020.8 362.999 1000.2 379.798 992.629 383.894 992.628 383.894 992.628 383.895 992.627 383.895 983.152 392.206 970.744 397.254 957.15 397.254L932.943 397.254 932.943 379.09C932.943 330.145 893.453 290.424 844.595 290.05 844.364 290.048 843.9 290.047 843.9 290.047 828.731 290.047 815.257 282.76 806.82 271.481 805.823 270.148 781.85 268.806 769.864 280.198 753.731 295.531 749.197 334.348 749.944 336.54 754.206 349.059 761.226 360.586 770.369 370.451L770.369 370.451 807.598 416.064 871.335 450.856 1010.35 450.618C1024.94 450.621 1038.12 445.147 1047.84 436.088Z"/><path d="M1052.35 362.903C1047.65 357.216 1041.8 352.527 1035.15 349.168 1027.89 345.496 1019.69 343.414 1010.99 343.414 1010.99 359.55 1003.89 374.018 992.641 383.885 992.636 383.89 992.637 383.898 992.643 383.902 998.509 386.733 1005.09 388.321 1012.04 388.321 1013.55 388.321 1015.05 388.244 1016.52 388.097 1016.52 388.321 1016.5 388.543 1016.5 388.768 1016.5 410.031 1029.42 428.276 1047.84 436.084 1047.84 436.086 1047.85 436.085 1047.85 436.082 1058.05 426.581 1064.44 413.136 1064.61 397.879L1064.62 397.879 1064.62 397.043C1064.62 384.073 1060.02 372.178 1052.35 362.903Z" fill="#D2D2D2"/><path d="M784.537 281.229C793.026 281.229 800.806 277.585 806.861 271.53 801.046 263.79 797.597 254.17 797.597 243.743L744.188 253.096 744.489 305.002C744.552 315.865 746.439 326.54 749.978 336.617 769.246 336.57 784.853 317.765 784.853 294.573 784.853 289.89 784.207 285.391 783.033 281.184 783.533 281.209 784.033 281.229 784.537 281.229Z" fill="#505050"/><path d="M697.121 449.056C697.101 449.654 697.091 450.255 697.091 450.858L717.639 450.858 764.781 403.88C732.788 392.465 698.268 415.107 697.121 449.056Z" fill="#2F2F2F"/><path d="M815.018 421.996 770.349 421.996 770.349 370.454 770.349 370.454C795.019 370.454 815.018 390.453 815.018 415.123L815.018 421.996Z" fill="#2F2F2F"/><path d="M705.219 450.859 703.432 450.859C703.432 429.978 720.42 412.99 741.301 412.99L741.301 414.777C721.405 414.776 705.219 430.963 705.219 450.859Z" fill="#505050"/><path d="M856.306 400.348C823.018 389.557 804.431 354.093 814.7 320.643 814.782 320.376 815.07 320.225 815.336 320.309L816.086 320.546C816.346 320.628 816.488 320.904 816.408 321.165 806.423 353.686 824.495 388.16 856.859 398.65 857.119 398.734 857.263 399.009 857.181 399.269L856.944 400.019C856.86 400.284 856.572 400.434 856.306 400.348Z" fill="#2F2F2F"/><path d="M823.059 415.261C823.059 390.591 803.06 370.592 778.39 370.592L778.39 370.592 778.39 401.956C748.537 395.806 718.734 417.553 717.67 449.057 717.649 449.655 717.639 450.256 717.639 450.859L785.346 450.859C800.145 450.859 812.769 441.569 817.721 428.506 817.723 428.502 823.059 415.261 823.059 415.261Z" fill="#D2D2D2"/><path d="M771.461 413.087C750.612 413.087 733.648 430.022 733.594 450.858L735.381 450.858C735.435 431.007 751.598 414.873 771.461 414.873L771.461 413.087Z" fill="#505050"/><path d="M776.871 423.288C761.647 423.288 749.258 435.648 749.204 450.859L750.991 450.859C751.044 436.632 762.632 425.075 776.871 425.075L776.871 423.288Z" fill="#505050"/><path d="M844.947 148 809.756 170.335 783.581 170.335C783.581 170.335 778.967 174.7 769.8 174.7 760.633 174.7 756.8 170.335 756.8 170.335L733.622 170.335 698.431 148 698.555 229.288C698.555 229.294 698.559 229.298 698.565 229.298L844.813 229.298C844.819 229.298 844.823 229.294 844.823 229.288L844.947 148Z" fill="#2F2F2F"/><path d="M783.592 170.335 756.79 170.335 756.79 170.966C756.79 197.364 695.98 229.203 695.374 229.52 695.368 229.523 695.368 229.521 695.372 229.526 695.736 229.934 730.344 268.608 772.982 268.608 815.61 268.608 850.212 229.952 850.592 229.526 850.596 229.521 850.596 229.523 850.59 229.52 849.945 229.216 783.592 197.938 783.592 170.335Z" fill="#737373"/><path d="M815.028 240.131C815.028 251.541 795.529 260.791 771.475 260.791 747.421 260.791 727.922 251.541 727.922 240.131 727.922 228.721 747.421 219.471 771.475 219.471 795.529 219.471 815.028 228.721 815.028 240.131Z" fill="#E6E6E6"/><path d="M741.826 231.518C741.401 231.442 698.661 223.936 644.876 226.876L644.778 225.092C698.782 222.14 741.713 229.683 742.14 229.76L741.826 231.518Z" fill="#2F2F2F"/><path d="M742.496 241.33C742.071 241.254 699.331 233.748 645.546 236.688L645.448 234.904C699.452 231.953 742.383 239.495 742.81 239.572L742.496 241.33Z" fill="#2F2F2F"/><path d="M646.085 243.188 645.803 241.424C697.29 233.19 741.542 233.095 741.983 233.095L741.983 234.882C741.544 234.882 697.425 234.978 646.085 243.188Z" fill="#737373"/><path d="M800.211 231.518 799.896 229.759C800.323 229.682 843.255 222.141 897.258 225.091L897.16 226.875C843.376 223.938 800.637 231.442 800.211 231.518Z" fill="#2F2F2F"/><path d="M895.952 243.188C844.612 234.978 800.493 234.882 800.054 234.882L800.054 233.095C800.495 233.095 844.748 233.19 896.234 241.424L895.952 243.188Z" fill="#737373"/><path d="M796.292 241.437C791.743 244.918 782.952 247.112 773.201 247.24L773.201 232.692C773.201 232.199 772.801 231.799 772.308 231.799 771.814 231.799 771.414 232.199 771.414 232.692L771.414 247.24C761.663 247.112 752.872 244.918 748.323 241.437L747.237 242.856C752.22 246.67 761.827 249.039 772.307 249.039 782.787 249.039 792.394 246.67 797.377 242.856L796.292 241.437Z" fill="#737474"/><path d="M785.709 223.578C785.709 226.839 779.667 235.105 772.214 235.105 764.761 235.105 758.719 226.838 758.719 223.578 758.719 220.317 764.761 217.674 772.214 217.674 779.667 217.674 785.709 220.317 785.709 223.578Z" fill="#2F2F2F"/><path d="M745.417 205.961C745.417 211.942 740.568 216.791 734.587 216.791 728.606 216.791 723.757 211.942 723.757 205.961L729.193 205.961C729.193 205.961 730.166 207.566 734.549 207.566 738.932 207.566 739.999 205.961 739.999 205.961L745.417 205.961Z" fill="#8FD3C3"/><path d="M740.002 205.961C740.002 208.952 737.578 211.376 734.587 211.376 731.596 211.376 729.172 208.952 729.172 205.961L740.002 205.961Z" fill="#2F2F2F"/><path d="M819.932 205.961C819.932 211.942 815.083 216.791 809.102 216.791 803.121 216.791 798.272 211.942 798.272 205.961L803.7 205.961C803.7 205.961 804.825 207.4 809.113 207.4 813.4 207.4 814.488 205.961 814.488 205.961L819.932 205.961Z" fill="#8FD3C3"/><path d="M814.517 205.961C814.517 208.952 812.093 211.376 809.102 211.376 806.111 211.376 803.687 208.952 803.687 205.961L814.517 205.961Z" fill="#2F2F2F"/><path d="M762.705 170.327 764.492 170.327 764.492 192.662 762.705 192.662Z" fill="#2F2F2F"/><path d="M768.959 170.327 770.746 170.327 770.746 181.941 768.959 181.941Z" fill="#505050"/><path d="M775.213 170.327 777 170.327 777 187.301 775.213 187.301Z" fill="#505050"/><path d="M856.225 398.434C827.28 398.444 803.818 421.912 803.818 450.859L871.525 450.859C890.644 450.859 906.144 435.36 906.144 416.24L906.144 416.24 856.261 398.44C856.249 398.436 856.237 398.434 856.225 398.434Z" fill="#2F2F2F"/><path d="M819.199 450.859 820.986 450.859C821.039 431.008 837.203 414.874 857.066 414.874L857.066 413.087C836.217 413.087 819.252 430.022 819.199 450.859Z" fill="#505050"/><path d="M834.809 450.859 836.596 450.859C836.649 436.632 848.237 425.075 862.475 425.075L862.475 423.288C847.252 423.288 834.862 435.647 834.809 450.859Z" fill="#505050"/></g></svg>