<svg width="720" height="720" xmlns="http://www.w3.org/2000/svg" xmlns:xlink="http://www.w3.org/1999/xlink" xml:space="preserve" overflow="hidden"><g transform="translate(-151 24)"><path d="M563.234 199.437C562.225 194.641 562.326 190.041 560.125 186.791 557.361 182.709 551.025 180.842 547.743 179.201L533.97 179.201C524.039 179.201 514.809 175.116 508.185 168.286 504.706 164.7 501.946 160.357 500.18 155.452L500.18 155.452C495.608 142.753 483.561 134.285 470.064 134.285L464.302 134.285C453.057 134.285 442.885 139.169 434.95 146.023 428.565 169.359 445.594 192.708 468.025 200.441 464.516 207.823 463.515 213.128 463.225 221.841 462.825 233.841 468.007 253.278 481.825 263.641 464.727 267.777 455.825 286.872 455.825 305.241 455.825 318.186 464.425 341.241 481.296 335.969L496.952 267.756 497.06 245.951C496.959 234.307 505.427 224.955 517.071 224.951L527.06 224.951C536.587 224.951 544.31 222.433 544.31 219.326 544.31 218.852 544.128 218.393 543.789 217.952 551.626 213.545 558.348 207.219 563.234 199.437Z" fill="#737373"/><path d="M530.042 536.099C529.353 512.285 502.938 494.655 480.342 497.497L457.326 415.641 441.277 415.815 449.851 509.417C450.006 511.109 450.432 512.759 451.117 514.314 453.978 520.812 462.635 537.314 476.773 537.314L530.06 537.314C530.06 536.908 530.054 536.502 530.042 536.099Z" fill="#737373"/><path d="M441.625 425.042C441.625 433.091 450.833 441.442 458.425 441.442 459.252 441.442 462.927 437.395 463.698 436.35 463.699 436.348 463.7 436.347 463.7 436.346L463.697 413.262 463.837 413.006C463.146 412.115 459.3 408.642 458.424 408.642 450.832 408.641 441.625 417.041 441.625 425.042Z" fill="#505050"/><path d="M352.776 512.558 352.862 512.536C353.92 526.617 365.672 537.365 380.022 537.365L433.31 537.365C433.31 536.958 433.304 536.902 433.293 536.499 432.596 512.454 410.67 495.501 387.932 498.776L364.31 498.776 352.776 512.558Z" fill="#737373"/><path d="M404.604 281.017 397.8 287.443C370.561 311.237 349.206 338.418 332.264 368.162 330.896 370.565 329.557 372.986 328.245 375.422 319.43 391.793 311.881 408.9 305.365 426.611 323.526 425.941 338.689 406.48 339.576 385.891 344.91 387.262 349.703 387.586 355.475 387.542 391.031 387.268 424.034 348.098 423.876 312.542 423.822 300.672 419.525 281.341 404.604 281.017Z" fill="#505050"/><path d="M204.83 485.439C204.826 485.438 204.827 485.441 204.824 485.443 199.672 492.692 202.033 502.81 209.862 507.031 227.378 516.475 257.05 530.753 277.785 531.649L317.091 531.83C335.223 525.656 337.161 509.48 337.161 496.638 337.161 474.596 324.427 435.908 299.476 443.68 293.52 461.977 288.536 480.836 284.3 500.149 284.3 500.149 279.263 504.16 264.263 504.16 241.848 504.161 205.114 485.583 204.83 485.439Z" fill="#505050"/><path d="M495.05 266.645C495.058 266.643 495.059 266.637 495.052 266.633 481.245 256.269 472.31 239.768 472.31 221.175 472.31 212.457 474.279 204.201 477.788 196.818 455.357 189.085 438.628 170.13 434.95 146.1 425.324 154.413 419.95 165.966 419.95 179.605L418.85 244.951 418.776 267.708 404.604 281.093C410.221 290.647 413.474 301.757 413.526 313.629 413.682 349.184 384.714 378.518 349.158 378.79 343.387 378.834 337.789 378.124 332.455 376.753 331.568 397.342 321.084 415.432 305.365 426.687 303.302 432.296 301.338 437.964 299.474 443.69 316.275 455.414 327.277 474.875 327.277 496.916 327.277 509.758 323.531 521.717 317.093 531.791L347.042 531.791C347.042 531.791 347.089 531.827 347.107 531.842 351.754 535.508 357.61 537.715 363.99 537.715L417.277 537.715C417.277 537.307 417.271 536.902 417.26 536.498 416.654 515.596 400.005 500.061 380.727 498.505 380.7 498.503 380.7 498.497 380.727 498.492 403.686 493.985 421.154 474.189 422.1 450.14 425.624 453.315 427.973 457.587 428.4 462.848L432.58 514.427C434.498 527.596 445.823 537.715 459.524 537.715L512.811 537.715C512.811 537.308 512.805 536.902 512.794 536.498 512.097 512.453 490.173 495.5 467.435 498.776L463.7 500.24 463.701 436.347C462.914 436.468 462.107 436.542 461.28 436.542 453.688 436.542 447.534 431.226 447.534 424.669 447.534 418.112 453.69 412.795 461.283 412.795 462.156 412.795 463.008 412.873 463.836 413.008 463.84 413.008 463.844 413.006 463.845 413.002L481.299 336.045C471.591 328.951 465.279 317.486 465.279 304.541 465.279 286.466 477.577 271.27 494.261 266.848L495.05 266.645Z" fill="#D2D2D2"/><path d="M456.021 292.465C460.85 292.465 464.766 287.932 464.766 282.34 464.766 276.748 460.85 272.215 456.021 272.215 451.191 272.215 447.276 276.748 447.276 282.34 447.276 287.932 451.191 292.465 456.021 292.465Z" fill="#505050"/><path d="M423.136 328.293C420.605 330.801 420.292 334.59 422.437 336.756 424.582 338.922 428.372 338.645 430.903 336.137 433.434 333.63 433.747 329.84 431.602 327.674 429.457 325.508 425.667 325.785 423.136 328.293Z" fill="#505050"/><path d="M455.1 332.689C457.506 330.817 457.682 327.02 455.493 324.209 453.305 321.397 449.579 320.636 447.174 322.508 444.768 324.38 444.592 328.176 446.78 330.988 448.97 333.799 452.694 334.561 455.1 332.689Z" fill="#505050"/><path d="M453.908 350.095C450.492 353.51 450.929 359.484 454.883 363.438 458.836 367.392 464.81 367.829 468.225 364.414 471.641 360.999 471.204 355.025 467.25 351.071 463.296 347.117 457.323 346.68 453.908 350.095Z" fill="#505050"/><path d="M534.56 203.151C534.56 204.78 533.239 206.101 531.61 206.101 529.981 206.101 528.66 204.78 528.66 203.151 528.66 201.522 529.981 200.201 531.61 200.201 533.239 200.201 534.56 201.522 534.56 203.151Z" fill="#2F2F2F"/><path d="M538.959 193.586C538.959 195.215 537.639 196.535 536.01 196.535 534.38 196.535 533.06 195.215 533.06 193.586 533.06 191.956 534.38 190.636 536.01 190.636 537.639 190.636 538.959 191.956 538.959 193.586Z" fill="#2F2F2F"/><path d="M546.459 203.151C546.459 204.78 545.139 206.101 543.51 206.101 541.88 206.101 540.56 204.78 540.56 203.151 540.56 201.522 541.88 200.201 543.51 200.201 545.139 200.201 546.459 201.522 546.459 203.151Z" fill="#2F2F2F"/><path d="M566.922 192.506C569.693 186.244 565.108 179.202 558.26 179.202L547.744 179.202C547.464 180.407 547.31 181.661 547.31 182.952 547.31 191.872 554.389 199.133 563.234 199.438 564.614 197.239 565.85 194.926 566.922 192.506L566.922 192.506Z" fill="#2F2F2F"/><path d="M502.114 174.108C501.172 169.358 496.827 165.937 491.87 166.288 486.499 166.669 482.453 171.332 482.835 176.704 483.177 181.531 486.982 185.277 491.648 185.711 493.137 183.879 500.75 175.629 502.114 174.108Z" fill="#FFFFFF"/><path d="M502.286 175.324C502.257 174.91 502.193 174.506 502.114 174.108 500.682 173.099 498.908 172.556 497.024 172.69 492.685 172.997 489.418 176.764 489.725 181.102 489.852 182.876 490.562 184.466 491.648 185.711 492.174 185.759 492.707 185.777 493.25 185.739 498.62 185.359 502.666 180.696 502.286 175.324Z" fill="#2F2F2F"/><path d="M542.091 217.487C537.007 217.962 531.848 218.057 526.745 217.871 521.638 217.669 516.55 217.148 511.607 216.128 509.141 215.605 506.703 214.986 504.354 214.172 502.01 213.352 499.746 212.369 497.641 211.179 493.427 208.804 490.013 205.394 488.227 201.267L488.222 201.255C487.635 199.9 486.062 199.277 484.707 199.863 483.352 200.449 482.729 202.022 483.315 203.378 483.339 203.432 483.367 203.49 483.393 203.542 484.734 206.141 486.557 208.458 488.667 210.367 490.78 212.274 493.141 213.831 495.618 215.013 500.572 217.403 505.818 218.673 511.041 219.407 516.274 220.135 521.52 220.323 526.731 220.19 531.948 220.039 537.12 219.608 542.277 218.785 542.635 218.729 542.878 218.393 542.822 218.035 542.767 217.692 542.456 217.454 542.116 217.486L542.091 217.487Z" fill="#2F2F2F"/><path d="M461.9 166.492C461.9 155.29 460.75 144.245 458.814 134.569 436.199 136.943 418.647 156.451 418.647 179.695L418.647 245.278C420.641 245.99 422.688 246.367 424.775 246.367 445.278 246.367 461.9 210.605 461.9 166.492Z" fill="#2F2F2F"/><path d="M418.721 252.644 497.145 252.644 497.145 267.715 418.721 267.715Z" fill="#8BD6C3"/><path d="M369.981 499.599C369.987 499.193 370.316 498.871 370.721 498.865 398.452 498.479 421.334 476.122 421.367 448.308 421.383 434.643 416.064 421.878 406.376 412.285 406.085 411.997 406.075 411.533 406.358 411.237L406.358 411.237C406.649 410.935 407.135 410.926 407.433 411.221 417.408 421.098 422.884 434.24 422.867 448.309 422.832 476.941 399.285 499.955 370.742 500.365 370.321 500.371 369.975 500.022 369.981 499.599L369.981 499.599Z" fill="#E6E6E6"/><path d="M379.19 508.257C378.766 508.239 378.411 508.587 378.411 509.011 378.411 509.414 378.732 509.738 379.134 509.755 394.078 510.398 406.056 522.659 406.244 537.715L407.744 537.715C407.556 521.852 394.935 508.93 379.19 508.257Z" fill="#737373"/><path d="M379.208 516.314C378.777 516.283 378.411 516.635 378.411 517.067 378.411 517.463 378.72 517.781 379.114 517.81 389.492 518.584 397.72 527.185 397.903 537.714L399.403 537.714C399.219 526.39 390.37 517.138 379.208 516.314Z" fill="#737373"/><path d="M473.268 508.257C472.843 508.239 472.488 508.587 472.488 509.011 472.488 509.414 472.809 509.738 473.211 509.755 488.155 510.398 500.133 522.659 500.321 537.715L501.821 537.715C501.633 521.852 489.012 508.93 473.268 508.257Z" fill="#737373"/><path d="M473.286 516.314C472.855 516.283 472.489 516.635 472.489 517.067 472.489 517.463 472.797 517.781 473.192 517.81 483.57 518.584 491.797 527.185 491.981 537.714L493.481 537.714C493.296 526.39 484.448 517.138 473.286 516.314Z" fill="#737373"/><path d="M551.543 440.95 551.181 440.947 551.181 440.947C551.181 440.947 551.181 440.947 551.181 440.947 550.544 440.947 549.915 440.978 549.291 441.025 536.82 441.947 526.869 451.898 525.947 464.369 525.9 464.993 525.869 465.622 525.869 466.259L525.869 466.259 525.869 466.259C525.869 466.259 525.87 466.436 525.87 466.543 525.87 466.589 525.871 466.623 525.871 466.623 526.064 480.314 537.126 491.375 550.816 491.569 550.816 491.569 551.181 491.573 551.181 491.573 551.818 491.573 552.447 491.541 553.073 491.495 565.543 490.573 575.494 480.621 576.417 468.151 576.463 467.526 576.495 466.897 576.495 466.26 576.495 466.26 576.495 466.26 576.495 466.26 576.494 452.401 565.355 441.144 551.543 440.95Z" fill="#8BD6C3"/><path d="M576.492 465.895 576.231 465.905C576.058 465.911 575.885 465.917 575.711 465.917 562.373 465.917 551.523 455.066 551.523 441.73 551.523 441.553 551.529 441.378 551.535 441.203L551.543 440.949 551.181 440.947C550.544 440.947 549.915 440.978 549.291 441.025L549.287 441.125C549.28 441.326 549.274 441.527 549.274 441.73 549.274 456.307 561.134 468.167 575.711 468.167 575.912 468.167 576.112 468.16 576.311 468.154L576.417 468.151C576.463 467.526 576.495 466.897 576.495 466.26L576.492 465.895Z" fill="#FFFFFF"/><path d="M553.089 490.789C553.089 476.211 541.229 464.351 526.652 464.351 526.451 464.351 525.947 464.369 525.947 464.369 525.9 464.993 525.869 465.622 525.869 466.259 525.869 466.259 525.871 466.622 525.871 466.622 525.871 466.622 526.477 466.601 526.652 466.601 539.989 466.601 550.839 477.452 550.839 490.789 550.839 490.966 550.816 491.573 550.816 491.573 550.816 491.573 551.181 491.572 551.181 491.572 551.818 491.572 552.447 491.54 553.073 491.494 553.072 491.494 553.089 490.991 553.089 490.789Z" fill="#FFFFFF"/><path d="M590.807 394.338 590.81 393.977 590.81 393.977C590.81 393.977 590.81 393.977 590.81 393.977 590.81 393.34 590.778 392.711 590.732 392.086 589.81 379.615 579.859 369.664 567.389 368.743 566.764 368.696 566.135 368.665 565.498 368.665L565.498 368.665 565.498 368.665C565.498 368.665 565.321 368.666 565.214 368.666 565.168 368.666 565.134 368.666 565.134 368.666 551.445 368.859 540.383 379.922 540.189 393.611 540.189 393.611 540.185 393.976 540.185 393.976 540.185 394.613 540.217 395.242 540.263 395.867 541.185 408.337 551.136 418.288 563.607 419.209 564.231 419.256 564.861 419.287 565.497 419.287 565.497 419.287 565.497 419.287 565.497 419.287 579.357 419.288 590.613 408.15 590.807 394.338Z" fill="#E6E6E6"/><path d="M565.863 419.286 565.852 419.026C565.846 418.852 565.84 418.68 565.84 418.505 565.84 405.169 576.69 394.318 590.027 394.318 590.204 394.318 590.379 394.324 590.554 394.331L590.807 394.338 590.81 393.977C590.81 393.34 590.778 392.711 590.732 392.086L590.631 392.083C590.43 392.075 590.229 392.069 590.027 392.069 575.449 392.069 563.59 403.929 563.59 418.506 563.59 418.707 563.597 418.906 563.604 419.105L563.607 419.211C564.231 419.258 564.861 419.289 565.497 419.289L565.863 419.286Z" fill="#FFFFFF"/><path d="M540.969 395.885C555.546 395.885 567.406 384.025 567.406 369.448 567.406 369.247 567.389 368.743 567.389 368.743 566.764 368.696 566.135 368.665 565.498 368.665 565.498 368.665 565.135 368.667 565.135 368.667 565.135 368.667 565.156 369.273 565.156 369.448 565.156 382.784 554.306 393.635 540.969 393.635 540.792 393.635 540.185 393.611 540.185 393.611 540.185 393.611 540.186 393.977 540.186 393.977 540.186 394.613 540.218 395.242 540.264 395.867 540.264 395.868 540.767 395.885 540.969 395.885Z" fill="#FFFFFF"/><path d="M524.234 305.666 523.872 305.663 523.872 305.663C523.872 305.663 523.872 305.663 523.872 305.663 523.235 305.663 522.606 305.695 521.982 305.741 509.511 306.663 499.56 316.615 498.638 329.085 498.591 329.71 498.56 330.339 498.56 330.977L498.56 330.977 498.56 330.977C498.56 330.977 498.56 331.154 498.561 331.26 498.561 331.307 498.562 331.34 498.562 331.34 498.755 345.031 509.817 356.092 523.507 356.286 523.507 356.286 523.872 356.29 523.872 356.29 524.509 356.29 525.138 356.258 525.764 356.212 538.234 355.29 548.185 345.338 549.107 332.868 549.154 332.243 549.185 331.614 549.185 330.977 549.185 330.977 549.185 330.977 549.185 330.977 549.185 317.117 538.046 305.861 524.234 305.666Z" fill="#F2F2F2"/><path d="M549.182 330.611 548.922 330.622C548.749 330.628 548.576 330.634 548.402 330.634 535.065 330.634 524.214 319.783 524.214 306.446 524.214 306.269 524.22 306.095 524.226 305.919L524.234 305.665 523.871 305.663C523.235 305.663 522.605 305.695 521.981 305.741L521.978 305.842C521.97 306.043 521.964 306.244 521.964 306.446 521.964 321.024 533.824 332.884 548.402 332.884 548.603 332.884 548.802 332.877 549.001 332.87L549.107 332.867C549.153 332.242 549.185 331.613 549.185 330.977L549.182 330.611Z" fill="#FFFFFF"/><path d="M525.78 355.505C525.78 340.927 513.921 329.068 499.343 329.068 499.142 329.068 498.638 329.085 498.638 329.085 498.591 329.71 498.56 330.339 498.56 330.977 498.56 330.977 498.562 331.34 498.562 331.34 498.562 331.34 499.168 331.318 499.343 331.318 512.68 331.318 523.53 342.169 523.53 355.506 523.53 355.683 523.507 356.29 523.507 356.29 523.507 356.29 523.872 356.289 523.872 356.289 524.509 356.289 525.138 356.258 525.764 356.211 525.764 356.211 525.78 355.708 525.78 355.505Z" fill="#FFFFFF"/><path d="M636.358 418.195 635.981 462.411C631.74 460.49 627.036 459.411 622.077 459.411 603.44 459.411 588.332 474.52 588.332 493.156L626.84 493.156C658.018 493.156 667.536 464.637 667.536 464.637L667.536 424.663 636.358 418.195Z" fill="#8BD6C3"/><path d="M598.383 493.157C598.529 480.091 609.198 469.507 622.298 469.507 622.671 469.507 622.975 469.204 622.975 468.83 622.975 468.455 622.672 468.153 622.298 468.153 608.451 468.153 597.176 479.345 597.029 493.157L598.383 493.157Z" fill="#FFFFFF"/><path d="M818.953 453.366C818.494 452.038 817.875 450.755 817.082 449.543 810.945 440.157 796.967 438.436 785.859 445.699 785.735 445.781 785.616 445.867 785.493 445.95 783.345 428.512 778.29 403.249 761.734 377.577 745.133 351.838 714.759 341.772 696.077 322.75 679.169 305.534 670.355 259.123 670.355 259.123 670.355 259.123 687.954 193.466 659.622 179.092 652.292 175.373 640.833 228.742 640.67 229.521 640.58 229.57 638.514 230.691 637.595 232.169 637.266 232.697 636.89 233.303 636.47 233.977 634.729 207.109 630.615 183.204 625.814 183.204 620.521 183.204 617.256 230.415 616.331 245.832 616.251 247.151 616.113 253.805 615.984 260.86 610.33 266.442 604.07 270.977 597.698 272.468 604.143 279.462 605.104 290.731 605.104 300.99 605.104 301.906 606.336 303.675 607.721 303.585 639.653 304.162 662.571 328.555 662.571 360.623 662.571 377.945 654.94 391.368 643.01 402.116 643.977 405.455 644.229 410.853 644.229 414.503 644.229 422.287 640.438 427.364 641.183 434.402 658.447 449.624 683.343 463.693 708.971 464.797 709.37 464.815 710.089 464.863 710.089 464.863 701.814 471.01 697.101 480.624 696.771 492.059 696.76 492.424 696.755 492.79 696.755 493.157L744.847 493.157C752.651 493.157 759.599 489.518 764.101 483.848 764.101 483.848 789.609 483.88 790.479 483.992 790.479 483.992 790.48 483.992 790.48 483.991 791.021 483.793 791.371 483.658 792.014 483.342 799.068 480.928 805.785 476.495 810.244 470.008 812.546 466.66 814.215 464.232 818.53 454.816 818.76 454.531 819.081 453.737 818.953 453.366Z" fill="#8BD6C3"/><path d="M665.618 359.307C665.618 327.238 639.909 301.178 607.979 300.602 607.982 300.548 607.972 300.422 607.948 300.229 605.933 284.203 611.98 268.355 623.852 257.404 631.87 250.009 637.803 240.389 640.672 229.522 640.171 229.502 633.965 229.48 633.965 229.48 621.784 229.48 610.911 237.122 606.786 248.584L606.786 248.584C604.036 256.22 598.618 262.346 591.808 266.061 587.151 268.602 581.841 270.017 576.29 270.017L566.487 270.017 563.86 270.017C562.056 270.87 557.273 273.126 555.242 275.066 553.032 277.178 550.55 282.016 549.88 288.279 554.29 295.302 560.357 301.012 567.429 304.99 567.123 305.387 566.959 305.802 566.959 306.229 566.959 308.036 569.855 309.621 574.213 310.521 576.619 311.018 579.469 311.306 582.527 311.306L591.536 311.306C596.33 311.306 600.524 313.066 603.663 315.973 607.409 319.44 609.652 324.542 609.602 330.259L609.602 354.946C609.602 361.965 610.314 368.9 611.517 375.76 613.231 385.535 615.951 395.157 619.105 404.647 620.238 408.056 622.039 411.672 624.414 415.369 628.49 421.712 634.264 428.293 641.283 434.483 645.323 428.475 647.682 421.241 647.682 413.457 647.682 409.807 647.153 406.283 646.186 402.944 658.115 392.197 665.618 376.628 665.618 359.307Z" fill="#E6E6E6"/><path d="M648.107 243.397C648.107 243.401 648.105 243.399 648.109 243.4 648.258 243.434 658.128 245.656 663.323 230.381 667.424 218.32 664.103 199.474 657.59 196.217 655.797 195.321 648.161 243.061 648.107 243.397Z" fill="#FFFFFF"/><path d="M581.082 291.632C581.082 293.102 579.889 294.294 578.419 294.294 576.949 294.294 575.757 293.102 575.757 291.632 575.757 290.161 576.949 288.969 578.419 288.969 579.89 288.969 581.082 290.161 581.082 291.632Z" fill="#737373"/><path d="M577.788 280.215C577.788 281.685 576.596 282.878 575.126 282.878 573.655 282.878 572.463 281.685 572.463 280.215 572.463 278.745 573.655 277.552 575.126 277.552 576.596 277.552 577.788 278.745 577.788 280.215Z" fill="#505050"/><path d="M570.342 291.632C570.342 293.102 569.15 294.294 567.68 294.294 566.209 294.294 565.017 293.102 565.017 291.632 565.017 290.161 566.209 288.969 567.68 288.969 569.15 288.969 570.342 290.161 570.342 291.632Z" fill="#737373"/><path d="M546.551 282.024C544.049 276.373 548.187 270.017 554.367 270.017L563.859 270.017C564.112 271.104 564.25 272.237 564.25 273.401 564.25 281.451 557.862 288.005 549.879 288.28 548.633 286.295 547.518 284.208 546.551 282.024L546.551 282.024Z" fill="#2F2F2F"/><path d="M568.314 304.758C578.739 306.659 589.355 301.396 595.401 292.952 597.35 290.113 601.568 293.613 599.105 296.039 596.633 298.619 593.764 301.046 590.684 302.861 583.882 306.767 575.557 308.132 567.98 305.893 567.26 305.678 567.58 304.547 568.314 304.758Z" fill="#737373"/><path d="M618.9 275.12C623.13 273.768 625.727 269.307 624.822 264.959 623.797 260.033 618.895 256.996 614.063 258.208 613.617 258.32 613.194 258.474 612.783 258.647 611.85 259.811 609.801 262.349 609.237 264.41 608.693 266.396 608.891 270.747 609.011 271.799 611.148 274.838 615.089 276.339 618.9 275.12Z" fill="#FFFFFF"/><path d="M615.956 262.968C615.486 261.094 614.309 259.586 612.784 258.647 608.851 260.305 606.6 264.618 607.671 268.885 607.942 269.964 608.409 270.94 609.011 271.798 609.599 271.802 610.196 271.741 610.793 271.591 614.6 270.636 616.911 266.775 615.956 262.968Z" fill="#2F2F2F"/><path d="M667.493 428.896 667.118 462.401C667.118 462.405 667.113 462.409 667.109 462.406 662.87 460.487 658.008 459.068 653.054 459.068 633.645 459.068 619.049 474.52 619.049 493.156L657.977 493.156C689.155 493.156 691.775 464.637 691.775 464.637L691.863 448.483 667.604 428.844C667.559 428.809 667.494 428.84 667.493 428.896Z" fill="#8BD6C3"/><path d="M619.599 493.157C619.783 475.071 634.539 459.752 652.659 459.752 657.393 459.752 661.977 460.742 666.283 462.691 666.492 462.786 666.733 462.768 666.926 462.646 667.119 462.523 667.236 462.31 667.239 462.082L667.617 428.427C667.621 428.053 667.321 427.747 666.948 427.743 666.945 427.743 666.942 427.743 666.94 427.743 666.57 427.743 666.267 428.041 666.263 428.413L665.898 461.037C665.898 461.042 665.894 461.045 665.889 461.043 661.686 459.287 657.241 458.398 652.66 458.398 633.794 458.398 618.43 474.326 618.246 493.157L619.599 493.157Z" fill="#FFFFFF"/><path d="M631.534 493.157C631.681 480.091 642.35 469.507 655.45 469.507 655.823 469.507 656.127 469.204 656.127 468.83 656.127 468.455 655.823 468.153 655.45 468.153 641.604 468.153 630.327 479.345 630.18 493.157L631.534 493.157Z" fill="#FFFFFF"/><path d="M644.777 493.157C644.924 487.391 649.65 482.744 655.45 482.744 655.823 482.744 656.127 482.441 656.127 482.066 656.127 481.692 655.823 481.39 655.45 481.39 648.903 481.39 643.571 486.645 643.424 493.157L644.777 493.157Z" fill="#FFFFFF"/><path d="M801.383 457.659C806.979 454 813.273 452.637 818.956 453.369 821.93 462.164 817.845 473.557 808.574 479.62 802.979 483.279 798.015 484.9 790.455 483.989 788.068 475.256 792.112 463.721 801.383 457.659Z" fill="#E6E6E6"/><path d="M615.452 371.85 619.163 368.961 619.579 369.495 615.868 372.384Z" fill="#FFFFFF"/><path d="M638.352 377.902 640.54 374.683 641.1 375.064 638.912 378.283Z" fill="#FFFFFF"/><path d="M627.259 375.537 628.76 368.579 629.422 368.721 627.921 375.68Z" fill="#D2D2D2"/><path d="M617.403 376.699 617.952 376.304 620.698 380.123 620.148 380.518Z" fill="#D2D2D2"/><path d="M656.62 374.275 656.813 369.329 657.489 369.356 657.296 374.302Z" fill="#FFFFFF"/><path d="M625.245 331.006 625.874 330.755 628.348 336.942 627.72 337.193Z" fill="#D2D2D2"/><path d="M624.364 364.287 624.778 357.687 625.453 357.73 625.04 364.329Z" fill="#FFFFFF"/><path d="M624.056 350.473 627.766 346.346 628.269 346.799 624.559 350.926Z" fill="#FFFFFF"/><path d="M642.974 361.601 643.525 361.207 647.649 366.982 647.098 367.375Z" fill="#D2D2D2"/><path d="M655.445 356.741 655.873 356.218 660.41 359.93 659.982 360.453Z" fill="#FFFFFF"/><path d="M656.067 348.686 661.016 348.686 661.016 349.364 656.067 349.364Z" fill="#FFFFFF"/><path d="M648.865 329.891 649.253 329.337 653.378 332.224 652.99 332.778Z" fill="#FFFFFF"/><path d="M637.333 336.786 641.87 333.898 642.233 334.47 637.697 337.357Z" fill="#FFFFFF"/><path d="M636.784 350.726 637.452 350.623 638.277 355.985 637.609 356.088Z" fill="#FFFFFF"/><path d="M640.302 347.026 646.076 345.787 646.218 346.449 640.444 347.688Z" fill="#D2D2D2"/><path d="M645.46 355.635 646.626 351.004 647.282 351.169 646.116 355.8Z" fill="#FFFFFF"/><path d="M614.751 343.566 614.883 342.902 621.07 344.139 620.937 344.803Z" fill="#FFFFFF"/><path d="M619.992 235.423 620.621 235.171 623.096 241.358 622.467 241.609Z" fill="#D2D2D2"/><path d="M618.375 254.401 622.087 250.277 622.59 250.73 618.878 254.853Z" fill="#FFFFFF"/><path d="M631.809 240.27 636.346 237.382 636.709 237.953 632.172 240.841Z" fill="#FFFFFF"/><path d="M617.659 246.026 617.792 245.362 623.979 246.6 623.846 247.263Z" fill="#FFFFFF"/><path d="M637.6 418.079 639.436 413.194 640.069 413.432 638.233 418.317Z" fill="#FFFFFF"/><path d="M628.544 413.087 629.209 412.96 630.244 418.365 629.578 418.492Z" fill="#FFFFFF"/><path d="M634.34 401.855 634.458 401.189 641.469 402.426 641.352 403.093Z" fill="#FFFFFF"/><path d="M626.623 401.255 630.334 398.366 630.749 398.9 627.039 401.789Z" fill="#D2D2D2"/><path d="M637.6 418.079 639.436 413.194 640.069 413.432 638.233 418.317Z" fill="#FFFFFF"/><path d="M628.544 413.087 629.209 412.96 630.244 418.365 629.578 418.492Z" fill="#D2D2D2"/><path d="M624.988 385.994 628.289 383.522 628.695 384.064 625.394 386.537Z" fill="#FFFFFF"/><path d="M635.163 388.131 635.725 387.754 638.851 392.413 638.289 392.79Z" fill="#FFFFFF"/><path d="M634.77 316.106 635.435 315.979 636.47 321.385 635.804 321.512Z" fill="#FFFFFF"/><path d="M610.705 322.823 610.894 317.878 611.57 317.904 611.381 322.849Z" fill="#FFFFFF"/><path d="M623.241 322.933 626.54 317.983 627.103 318.358 623.803 323.308Z" fill="#FFFFFF"/><path d="M634.77 316.106 635.435 315.979 636.47 321.385 635.804 321.512Z" fill="#D2D2D2"/><path d="M610.705 322.823 610.894 317.878 611.57 317.904 611.381 322.849Z" fill="#D2D2D2"/><path d="M616.102 331.666 619.16 327.242 619.717 327.626 616.659 332.05Z" fill="#FFFFFF"/><path d="M587.473 271.224 588.102 270.972 590.577 277.159 589.948 277.411Z" fill="#D2D2D2"/><path d="M595.256 281.38 599.793 278.492 600.157 279.064 595.62 281.952Z" fill="#FFFFFF"/><path d="M593.669 270.225 596.727 265.8 597.283 266.185 594.225 270.609Z" fill="#FFFFFF"/><path d="M606.746 309.537 606.774 308.861 611.804 309.07 611.776 309.746Z" fill="#FFFFFF"/><path d="M621.291 308.159 621.654 307.588 626.191 310.475 625.827 311.046Z" fill="#FFFFFF"/><path d="M623.241 322.933 626.54 317.983 627.103 318.358 623.803 323.308Z" fill="#D2D2D2"/><path d="M612.529 362.167 612.647 361.5 619.658 362.738 619.541 363.404Z" fill="#FFFFFF"/><path d="M638.352 377.902 640.54 374.683 641.1 375.064 638.912 378.283Z" fill="#FFFFFF"/><path d="M617.403 376.699 617.952 376.304 620.698 380.123 620.148 380.518Z" fill="#D2D2D2"/><path d="M805.252 471.819 805.369 471.152 812.381 472.39 812.263 473.056Z" fill="#FFFFFF"/><path d="M797.561 471.234 801.274 468.347 801.689 468.882 797.976 471.768Z" fill="#D2D2D2"/><path d="M806.078 458.145 806.639 457.768 809.765 462.427 809.203 462.804Z" fill="#FFFFFF"/><path d="M709.536 493.157C709.682 480.091 720.351 469.507 733.451 469.507 733.826 469.507 734.129 469.204 734.129 468.83 734.129 468.455 733.826 468.153 733.451 468.153 719.605 468.153 708.329 479.345 708.182 493.157L709.536 493.157Z" fill="#FFFFFF"/><path d="M696.867 493.157C697.015 473.107 713.366 456.839 733.451 456.839 733.825 456.839 734.128 456.535 734.128 456.162 734.128 455.789 733.825 455.485 733.451 455.485 712.62 455.485 695.661 472.36 695.513 493.157L696.867 493.157Z" fill="#FFFFFF"/><path d="M722.779 493.157C722.925 487.391 727.651 482.744 733.451 482.744 733.826 482.744 734.129 482.441 734.129 482.066 734.129 481.692 733.826 481.39 733.451 481.39 726.905 481.39 721.572 486.645 721.425 493.157L722.779 493.157Z" fill="#FFFFFF"/><path d="M733.451 456.839C709.839 456.839 690.63 437.629 690.63 414.018L690.63 409.08C690.63 408.706 690.932 408.403 691.306 408.403 691.68 408.403 691.983 408.706 691.983 409.08L691.983 414.018C691.983 436.883 710.586 455.485 733.451 455.485 733.825 455.485 734.128 455.788 734.128 456.162 734.128 456.536 733.825 456.839 733.451 456.839Z" fill="#FFFFFF"/><path d="M663.308 450.659C663.23 450.659 663.152 450.646 663.075 450.617 648.98 445.445 640.826 435.001 640.745 434.896 640.518 434.599 640.573 434.175 640.869 433.947 641.165 433.72 641.589 433.773 641.819 434.07 641.897 434.172 649.829 444.314 663.542 449.347 663.893 449.476 664.073 449.864 663.945 450.215 663.843 450.49 663.584 450.659 663.308 450.659Z" fill="#FFFFFF"/></g></svg>